<?xml version="1.0" encoding="utf-8"?>
<!-- Generator: Adobe Illustrator 24.2.3, SVG Export Plug-In . SVG Version: 6.00 Build 0)  -->
<svg version="1.1" id="Layer_1" xmlns="http://www.w3.org/2000/svg" xmlns:xlink="http://www.w3.org/1999/xlink" x="0px" y="0px"
	 viewBox="0 0 110 86" style="enable-background:new 0 0 110 86;" xml:space="preserve">
<style type="text/css">
	.st0{clip-path:url(#SVGID_2_);}
	.st1{fill-rule:evenodd;clip-rule:evenodd;fill:#FFFFFF;}
</style>
<g>
	<defs>
		<rect id="SVGID_1_" y="0.192" width="110" height="85.616"/>
	</defs>
	<clipPath id="SVGID_2_">
		<use xlink:href="#SVGID_1_"  style="overflow:visible;"/>
	</clipPath>
	<g class="st0">
		<defs>
			<rect id="SVGID_3_" y="0.192" width="110" height="85.616"/>
		</defs>
		<clipPath id="SVGID_4_">
			<use xlink:href="#SVGID_3_"  style="overflow:visible;"/>
		</clipPath>
		<g style="clip-path:url(#SVGID_4_);">
			
				<image style="overflow:visible;" width="1827" height="1422" xlink:href="AF0FBBA8609751D9.png"  transform="matrix(0.0602 0 0 0.0602 0 0.192)">
			</image>
		</g>
	</g>
</g>
<path class="st1" d="M17.099,66.361c0,0.644,0.11,0.847,0.902,0.845l7.106-0.363c2.803-0.151,5.638-0.006,8.431-0.002
	c0.348,0,0.41,0.055,0.718,0.064c0.255,0.008,0.532-0.016,0.785-0.002l1.514,0.112c0.256,0.029,0.517-0.005,0.774,0.008
	c1.23,0.066,2.63,0.181,3.853,0.183c0.761,0.001,0.963-0.159,0.963-0.845c0-0.704-0.87-0.539-1.567-0.54l-2.011-0.156
	c-0.678-0.096-1.187-0.155-1.815-0.293c-2.754-0.606-5.384-2.14-5.384-5.394c0-2.466,0.655-4.407,1.545-6.403l3.237-7.6
	c0.365-0.872,0.696-1.675,1.078-2.534c0.381-0.856,0.712-1.673,1.08-2.533c0.213-0.498,1.033-2.19,1.067-2.606h24.986
	c0.069,0.297,0.292,0.606,0.361,0.903l-1.072,1.517c-2.217,3.325-3.758,7.172-4.416,11.178c-0.187,1.141-0.349,2.34-0.351,3.563
	c-0.001,0.43-0.071,0.757-0.065,1.265c0.029,2.254,0.328,4.754,0.881,6.946c0.516,2.045,1.099,3.959,2.032,5.795
	c0.588,1.158,1.127,2.311,1.845,3.393c0.666,1.003,1.399,2.066,2.244,2.934l0.632,0.693c0.649,0.648,1.279,1.347,1.993,1.921
	c3.695,2.967,7.121,5.047,11.99,6.253c5.795,1.436,12.517,1.476,18.419,0.296c2.461-0.492,4.667-1.215,6.982-2.049
	c0.731-0.263,1.699-0.588,2.306-1.066c0.255-0.201,0.337-0.346,0.451-0.693c0.33-1.008,1.075-8.458,1.267-9.992
	c0.087-0.694,0.356-1.428-0.585-1.428c-0.389,0-0.43,0.174-0.521,0.502c-0.533,1.914-1.916,4.662-2.995,6.277
	c-0.854,1.28-1.013,1.329-1.791,2.303c-0.729,0.913-1.775,1.763-2.749,2.429c-1.101,0.753-2.108,1.281-3.344,1.834
	c-1.913,0.855-4.883,1.345-7.505,1.345c-3.063,0-6.005-0.799-8.127-1.747l-0.824-0.38c-1.723-0.862-3.402-1.893-4.849-3.158
	c-1.116-0.975-1.504-1.298-2.53-2.407c-1.581-1.71-2.711-3.32-3.933-5.339c-0.634-1.047-1.196-2.135-1.66-3.277
	c-0.095-0.235-0.329-0.628-0.353-0.912c0.409,0,0.671-0.061,1.144-0.06c0.478,0.001,0.819-0.04,1.204-0.06
	c0.193-0.01,0.409,0.005,0.605,0.003c0.311-0.004,0.332-0.049,0.599-0.063c0.194-0.01,0.406,0.013,0.599-0.003
	c1.323-0.109,7.563-0.386,8.708-0.212l3.099,0.152c0.268,0.022,0.57-0.012,0.84,0.003l4.698,0.179
	c0.974,0.029,1.804,0.431,1.804-0.781c0-0.189-0.117-0.416-0.238-0.485c-0.161-0.092-0.476-0.045-0.726-0.057
	c-1.23-0.06-2.559-0.499-3.541-1.095c-1.595-0.967-2.727-2.43-3.744-3.962l-1.155-1.916c-0.968-1.61-2.356-4.439-3.118-6.153
	l-5.48-11.559c-0.167-0.333-0.314-0.692-0.481-1.024c-0.28-0.554-1.436-2.895-1.505-3.191c0.549-0.819,2.188-2.089,3.045-2.735
	c1.119-0.844,2.367-1.563,3.673-2.107c1.424-0.593,2.839-1.073,4.396-1.384c6.444-1.288,13.919-0.165,18.665,2.999
	c0.45,0.3,0.797,0.564,1.209,0.898c0.227,0.184,0.341,0.271,0.545,0.478c0.202,0.205,0.363,0.298,0.574,0.51
	c0.531,0.535,0.998,1.131,1.455,1.736c0.471,0.625,0.893,1.255,1.239,1.952c0.225,0.453,0.497,0.929,0.697,1.411l0.861,2.33
	c0.122,0.394,0.152,0.595,0.61,0.595c0.343,0,0.538-0.061,0.55-0.418c0.016-0.471-0.413-3.911-0.484-4.645l-0.372-3.662
	c-0.081-0.834-0.112-1.883-0.376-2.695c-0.113-0.348-0.177-0.388-0.415-0.609c-0.193-0.179-0.374-0.27-0.628-0.395
	c-0.268-0.132-0.416-0.221-0.663-0.36c-0.438-0.246-0.905-0.418-1.378-0.609c-0.508-0.205-0.972-0.377-1.518-0.529
	c-2.022-0.561-4.718-1.17-6.818-1.31c-0.596-0.04-1.298-0.11-1.873-0.174c-1.532-0.171-3.395-0.069-4.928-0.069
	c-4.155,0-7.977,0.481-11.116,1.528c-0.759,0.253-1.548,0.53-2.251,0.88c-0.88,0.438-1.841,0.793-2.73,1.244
	c-1.022,0.519-1.957,1.164-2.905,1.791c-0.208,0.138-0.296,0.226-0.506,0.337l-2.669-5.64c-0.133-0.288-0.28-0.531-0.401-0.803
	l-1.907-4.054c-0.139-0.289-0.274-0.511-0.4-0.805l-2.305-4.859c-0.463-1.123-1.346-2.903-1.891-4.009
	c-0.8-1.624-1.514-3.28-2.328-4.896l-0.763-1.585c-0.942-1.874-1.743-3.807-2.689-5.68c-0.251-0.497-0.41-1.247-0.997-1.355
	c-0.839-0.155-0.997,0.47-1.257,1.089c-0.484,1.156-0.945,2.234-1.436,3.381l-9.212,21.735c-0.25,0.582-0.475,1.114-0.714,1.694
	l-2.847,6.726c-0.24,0.571-0.48,1.077-0.706,1.642l-8.583,20.076c-0.485,1.137-1.813,3.552-2.572,4.593
	c-0.183,0.252-0.328,0.456-0.508,0.696c-0.425,0.569-0.888,1.122-1.408,1.603c-1.865,1.725-4.059,2.317-6.612,2.359
	C17.365,65.821,17.099,65.982,17.099,66.361 M51.117,10.367l0.774,1.574c0.117,0.288,0.238,0.513,0.37,0.774l3.44,7.277
	c0.107,0.264,0.235,0.496,0.373,0.771c0.146,0.29,0.234,0.532,0.381,0.823l1.144,2.408c0.152,0.302,0.248,0.519,0.382,0.822
	l1.926,4.035c0.137,0.271,0.236,0.535,0.381,0.823c0.27,0.537,0.506,1.062,0.764,1.584l2.287,4.878h-23.06l5.427-12.876
	c0.217-0.525,0.459-1.052,0.68-1.608c0.228-0.574,0.455-1.042,0.679-1.609c1.019-2.577,2.365-5.458,3.389-8.051L51.117,10.367z
	 M65.566,54.5c0-3.348,0.24-6.1,1.197-9.219c0.088-0.287,0.285-0.728,0.309-1.016c0.236,0.173,1.937,3.996,2.127,4.375
	c0.374,0.745,0.669,1.464,1.044,2.207l1.585,3.352c0.399,0.897,1.26,2.586,1.575,3.362c0.138,0.342,0.34,0.743,0.513,1.112
	c0.532,1.133,1.104,2.775,1.104,4.074c0,1.618-1.326,2.31-2.66,2.638c-1.443,0.355-3.079,0.433-4.866,0.433l-0.757-2.554
	C66.023,60.747,65.566,57.226,65.566,54.5z"/>
<path class="st1" d="M12.463,74.79c0.997,0,1.505-0.055,1.505,1.264v7.767c0,1.177-0.569,1.204-1.505,1.204v0.361h5.66v-0.361
	c-0.954,0-1.505-0.023-1.505-1.204v-3.372c0.729,0,0.615-0.058,0.837,0.247c0.941,1.298,1.99,2.9,2.913,4.131
	c0.123,0.164,0.322,0.559,0.525,0.559h3.432c0-0.592-0.132-0.223-0.701-0.564c-0.457-0.274-2.616-3.448-3.164-4.241
	c-0.111-0.16-0.182-0.198-0.229-0.373c0.311-0.026,0.636-0.196,0.884-0.32c0.737-0.37,1.464-1.205,1.464-2.148v-0.542
	c0-1.062-0.9-2.035-1.668-2.366c-0.919-0.396-2.276-0.464-3.57-0.464h-4.877V74.79z M16.617,79.787v-4.696
	c1.671,0,3.251,0.012,3.251,2.348c0,0.733-0.197,1.548-0.829,1.94c-0.725,0.451-1.201,0.305-1.757,0.351
	C17.035,79.75,16.946,79.787,16.617,79.787z"/>
<path class="st1" d="M24.685,79.426c0,1.266-0.015,1.965,0.582,3.151c0.81,1.611,2.274,2.741,4.11,2.994
	c2.867,0.396,5.208-0.545,6.487-3.275c1.505-3.211-0.376-8.049-5.038-8.049c-1.842,0-3.118,0.196-4.47,1.55
	C25.436,76.72,24.685,78.004,24.685,79.426 M30.465,74.85c1.147,0,1.854,0.578,2.329,1.525c0.79,1.577,1.322,8.59-2.208,8.59
	c-1.868,0-2.514-1.575-2.796-3.164l-0.158-1.833l0.141-1.85c0.15-1.079,0.492-1.989,1.262-2.712
	C29.379,75.083,30.035,74.85,30.465,74.85z"/>
<path class="st1" d="M0,79.847c0,2.082,0.699,3.464,2.21,4.594c0.394,0.295,0.91,0.58,1.393,0.774
	c0.472,0.19,1.072,0.362,1.698,0.409c1.73,0.128,3.085-0.071,4.686-0.606c0.247-0.082,0.545-0.237,0.79-0.294
	c0-0.816-0.038-1.725-0.001-2.529c0.078-1.668,1.325-0.534,1.325-1.444H6.683v0.361c1.735,0,1.385,0.552,1.385,3.552
	c-0.517,0.043-1.731,0.692-3.193-0.058c-2.062-1.058-2.135-4.657-1.636-6.758c0.155-0.651,0.246-0.928,0.535-1.452
	c0.409-0.742,1.306-1.485,2.428-1.485c1.228,0,2.118,0.224,2.966,1.068c1.081,1.074,1.089,2.123,1.429,2.123
	c0.139,0,0.181-0.042,0.181-0.181v-3.793h-0.361c-0.054,0.232-0.085,0.322-0.212,0.511c-0.566,0.842-1.585-0.511-3.942-0.511
	c-0.946,0-1.827,0.164-2.521,0.429C1.603,75.374,0,77.503,0,79.847"/>
<path class="st1" d="M49.13,74.549c0,0.374,0.265,0.211,0.655,0.248c0.933,0.088,0.91,0.721,0.91,1.799
	c0,1.808,0.082,5.914-0.054,7.472c-0.04,0.455-0.083,0.812-0.811,0.935c-0.537,0.091-0.7-0.177-0.7,0.383h5.66v-0.361
	c-1.163,0-1.505-0.092-1.505-1.445v-3.131c1.7,0,3.647,0.012,4.662-1.479c0.872-1.28,0.536-3.235-1.069-4.041
	c-0.851-0.428-1.922-0.561-3.172-0.561H49.31C49.172,74.368,49.13,74.41,49.13,74.549 M53.284,79.727v-4.636
	c2.114,0,2.348,0.98,2.348,2.649c0,1.273-0.696,1.918-1.849,2.005C53.55,79.763,53.591,79.727,53.284,79.727z"/>
<path class="st1" d="M37.209,74.549c0,0.555,1.112-0.095,1.359,0.748c0.161,0.549,0.086,5.27,0.086,6.056
	c0,1.52,0.131,2.425,0.9,3.194c1.211,1.211,3.249,1.314,4.833,0.914c0.536-0.136,0.963-0.401,1.347-0.7
	c0.318-0.248,0.767-0.761,0.921-1.126c0.673-1.586,0.2-6.401,0.381-7.807c0.133-1.035,0.797-1.037,1.491-1.037v-0.421h-3.673
	c-0.185,0-0.181,0.083-0.181,0.241c0,0.507,1.565-0.39,1.565,1.565v4.997c0,2.103-0.536,3.552-2.83,3.552
	c-1.748,0-2.047-1.321-2.047-2.83v-5.84c0-0.485,0.04-0.952,0.377-1.129c0.199-0.105,0.355-0.14,0.645-0.137
	c0.396,0.003,0.604,0.097,0.604-0.239c0-0.139-0.042-0.181-0.181-0.181h-5.419C37.25,74.368,37.209,74.41,37.209,74.549"/>
</svg>
