<?xml version="1.0" encoding="UTF-8"?>
<svg width="180px" height="38px" viewBox="0 0 180 38" version="1.1" xmlns="http://www.w3.org/2000/svg" xmlns:xlink="http://www.w3.org/1999/xlink">
    <title>Saunders-Horiz-White</title>
    <defs>
        <filter id="filter-1">
            <feColorMatrix in="SourceGraphic" type="matrix" values="0 0 0 0 1.000000 0 0 0 0 1.000000 0 0 0 0 1.000000 0 0 0 1.000000 0"></feColorMatrix>
        </filter>
        <polygon id="path-2" points="0 0 17 0 17 38 0 38"></polygon>
    </defs>
    <g id="Symbols" stroke="none" stroke-width="1" fill="none" fill-rule="evenodd">
        <g id="Footer" transform="translate(-926.000000, -328.000000)">
            <g id="Saunders-Horiz-White" transform="translate(926.000000, 328.000000)" filter="url(#filter-1)">
                <g>
                    <g id="Group-4">
                        <mask id="mask-3" fill="white">
                            <use xlink:href="#path-2"></use>
                        </mask>
                        <g id="Clip-2"></g>
                        <polyline id="Fill-1" fill="#FFFFFE" mask="url(#mask-3)" points="0 9.93277082 0 28.8991981 6.10033947 25.3349226 6.10033947 13.5026087 17 7.12457786 17 0 0 9.93277082"></polyline>
                        <polyline id="Fill-3" fill="#FFFFFE" mask="url(#mask-3)" points="10.8996605 24.5271897 0 30.90085 0 38.0238386 17 28.0906705 17 9.13695723 10.8996605 12.7040139 10.8996605 24.5271897"></polyline>
                    </g>
                    <path d="M32.0893243,23.4677131 C32.564568,24.9670177 33.7059982,25.9509239 36.4871536,25.9509239 C39.102723,25.9509239 39.8396004,25.1152394 39.8396004,24.0085436 C39.8396004,22.8032982 39.0785189,22.1396781 35.5601018,21.524538 C29.7353888,20.4925492 28.6892379,18.5497715 28.6892379,16.2131929 C28.6892379,12.7464733 31.89915,11 35.8697594,11 C41.598809,11 43.1678433,14.0494735 43.3580176,16.0661633 L39.2928973,16.0661633 C39.0550833,15.2054441 38.4845603,14.0494735 35.7264563,14.0494735 C33.8008932,14.0494735 32.826586,14.6892509 32.826586,15.8197894 C32.826586,16.8032982 33.5158238,17.3198887 36.6538923,17.8853566 C43.0014887,19.0655673 44,21.0576197 44,23.5662627 C44,26.566064 41.7179081,29 36.106805,29 C30.8768189,29 28.5232675,26.590304 28,23.4677131 L32.0893243,23.4677131" id="Fill-5" fill="#FFFFFE"></path>
                    <path d="M58.5591623,20.8283445 C56.9112918,16.9400881 56.1123732,14.9362547 55.6878972,13.6562988 L55.6624771,13.6562988 C55.2884379,14.9116702 54.3390159,17.4961666 53.0159582,20.8283445 L58.5591623,20.8283445 Z M51.9172433,24.1367184 L50.3948595,28 L46,28 L53.0659915,11 L58.5591623,11 L66,28 L61.3803942,28 L59.7321202,24.1367184 L51.9172433,24.1367184 L51.9172433,24.1367184 Z" id="Fill-6" fill="#FFFFFE"></path>
                    <path d="M71.1393541,11 L71.1393541,20.9636789 C71.1393541,24.7192754 73.0513899,25.6704127 75.1331932,25.6704127 C77.3597291,25.6704127 78.8610371,24.6687045 78.8610371,20.9636789 L78.8610371,11 L83,11 L83,21.0890947 C83,26.4471815 80.0951764,29 75.0361832,29 C70.1227049,29 67,26.6717163 67,21.1894273 L67,11 L71.1393541,11" id="Fill-7" fill="#FFFFFE"></path>
                    <path d="M87,28 L87,11 L91.7810289,11 C96.4675846,18.2926269 98.3371582,20.9493159 99.3786575,22.9531494 L99.4264678,22.9531494 C99.2608529,21.1666743 99.2838019,18.0026857 99.2838019,15.2016114 L99.2838019,11 L103,11 L103,28 L98.5031555,28 C96.9407152,25.4646727 91.5917001,17.0130612 90.5976286,15.0814204 L90.5502008,15.0814204 C90.6924842,17.1578367 90.6924842,19.5967772 90.6924842,22.6156 L90.6924842,28 L87,28" id="Fill-8" fill="#FFFFFE"></path>
                    <path d="M111.243483,24.8125976 L114.246526,24.8125976 C117.67107,24.8125976 119.507868,22.9285649 119.507868,19.3072262 C119.507868,16.1674318 117.82026,14.211987 114.295855,14.1632082 L111.243483,14.1632082 L111.243483,24.8125976 Z M107,11 L114.891411,11 C120.773172,11 124,14.7185061 124,19.210449 C124,24.644018 119.904905,28 114.816816,28 L107,28 L107,11 L107,11 Z" id="Fill-9" fill="#FFFFFE"></path>
                    <polyline id="Fill-10" fill="#FFFFFE" points="140.91476 20.8283445 131.218563 20.8283445 131.218563 24.6920163 142 24.6920163 141.506818 28 127 28 127 11 141.43306 11 141.43306 14.3087641 131.218563 14.3087641 131.218563 17.5199706 140.91476 17.5199706 140.91476 20.8283445"></polyline>
                    <path d="M149.966795,18.3414057 L154.098225,18.3414057 C156.046912,18.3414057 156.892089,17.6163575 156.892089,16.1920163 C156.892089,14.8394776 156.023393,14.0910155 154.121744,14.0910155 L149.966795,14.0910155 L149.966795,18.3414057 Z M149.966795,21.4562253 L149.966795,28 L146,28 L146,11 L154.990441,11 C158.816499,11 161,12.932031 161,15.8540768 C161,18.0514645 159.755753,19.3314204 158.112817,19.8621339 C158.79298,20.1520751 160.553892,20.8283445 160.553892,23.8713617 L160.553892,24.7158204 C160.553892,25.8997796 160.553892,27.2031494 160.765566,28 L156.657276,28 C156.375044,27.251538 156.351525,26.237329 156.351525,24.4508539 L156.351525,23.8713617 C156.351525,22.1562988 155.74192,21.4562253 153.324364,21.4562253 L149.966795,21.4562253 L149.966795,21.4562253 Z" id="Fill-11" fill="#FFFFFE"></path>
                    <path d="M168.088654,23.4677131 C168.564678,24.9670177 169.706135,25.9509239 172.486973,25.9509239 C175.102605,25.9509239 175.839116,25.1152394 175.839116,24.0085436 C175.839116,22.8032982 175.078785,22.1396781 171.560283,21.524538 C165.73543,20.4925492 164.68887,18.5497715 164.68887,16.2131929 C164.68887,12.7464733 167.898475,11 171.86918,11 C177.598751,11 179.168207,14.0494735 179.358386,16.0661633 L175.293168,16.0661633 C175.05458,15.2054441 174.484044,14.0494735 171.726258,14.0494735 C169.800648,14.0494735 168.826318,14.6892509 168.826318,15.8197894 C168.826318,16.8032982 169.515572,17.3198887 172.653332,17.8853566 C179.001849,19.0655673 180,21.0576197 180,23.5662627 C180,26.566064 177.717469,29 172.107,29 C166.87612,29 164.522512,26.590304 164,23.4677131 L168.088654,23.4677131" id="Fill-12" fill="#FFFFFE"></path>
                </g>
            </g>
        </g>
    </g>
</svg>