<!-- Generated by IcoMoon.io -->
<svg version="1.1" xmlns="http://www.w3.org/2000/svg" width="34" height="32" viewBox="0 0 34 32">
<title>services-ico-1</title>
<path d="M32.625 16.975c0.538 0 0.975-0.437 0.975-0.975v-7.28c0-0.538-0.437-0.975-0.975-0.975-0.68 0-13.957 0-14.69 0v-6.305c0-0.538-0.437-0.975-0.975-0.975h-10.4c-0.538 0-0.975 0.437-0.975 0.975v6.305h-4.29c-0.538 0-0.975 0.437-0.975 0.975v7.28c0 0.538 0.437 0.975 0.975 0.975h4.29v5.33h-4.29c-0.538 0-0.975 0.437-0.975 0.975v7.28c0 0.538 0.437 0.975 0.975 0.975h31.33c0.538 0 0.975-0.437 0.975-0.975v-7.28c0-0.538-0.437-0.975-0.975-0.975h-4.29v-5.33h4.29zM31.65 15.025c-1.043 0-7.484 0-8.515 0v-5.33h8.515v5.33zM21.185 15.025c-1.021 0-7.422 0-8.45 0v-5.33h8.45v5.33zM7.535 2.415h8.45v5.33c-1.021 0-7.422 0-8.45 0v-5.33zM2.27 15.025v-5.33h8.515v5.33c-1.032 0-7.472 0-8.515 0zM7.535 16.975h8.45v5.33c-1.021 0-7.422 0-8.45 0v-5.33zM2.27 24.255h8.515v5.33h-8.515v-5.33zM12.735 24.255h8.45v5.33h-8.45v-5.33zM31.65 24.255v5.33h-8.515v-5.33h8.515zM26.385 22.305c-1.021 0-7.422 0-8.45 0v-5.33h8.45v5.33z"></path>
</svg>
