<!-- Generated by IcoMoon.io -->
<svg version="1.1" xmlns="http://www.w3.org/2000/svg" width="33" height="32" viewBox="0 0 33 32">
<title>services-ico-2</title>
<path d="M28.558 1.938c-1.385 0-2.597 0.755-3.247 1.875h-24.066c-0.518 0-0.938 0.42-0.938 0.938v24.375c0 0.518 0.42 0.938 0.938 0.938h27.312c2.068 0 3.75-1.682 3.75-3.75v-20.625c0-2.068-1.682-3.75-3.75-3.75zM28.558 28.188c-0.367 0-26.034 0-26.375 0v-22.5h22.625v20.625c0 0.518 0.42 0.937 0.937 0.937s0.938-0.42 0.938-0.937c0-1.034 0.841-1.875 1.875-1.875s1.875 0.841 1.875 1.875c0 1.034-0.841 1.875-1.875 1.875zM30.433 23.066c-0.552-0.32-1.192-0.503-1.875-0.503s-1.323 0.183-1.875 0.503v-17.378c0-1.034 0.841-1.875 1.875-1.875s1.875 0.841 1.875 1.875v17.378z"></path>
<path d="M21.933 7.563h-16.875c-0.518 0-0.938 0.42-0.938 0.937v16.875c0 0.518 0.42 0.937 0.938 0.937h9.375c0.249 0 0.487-0.099 0.663-0.275s0.275-0.414 0.275-0.663v-1.875c0-1.222 0.784-2.265 1.875-2.652v4.527c0 0.518 0.42 0.937 0.938 0.937h3.75c0.518 0 0.938-0.42 0.938-0.937v-16.875c0-0.518-0.42-0.937-0.938-0.937zM20.995 24.437h-1.875v-4.687c0-0.518-0.42-0.938-0.937-0.938-2.585 0-4.688 2.103-4.688 4.688v0.937h-7.5v-5.625h3.75v2.813c0 0.518 0.42 0.938 0.938 0.938s0.937-0.42 0.937-0.938v-3.75c0-0.518-0.42-0.938-0.937-0.938h-4.688v-7.5h5.625v3.75h-2.813c-0.518 0-0.937 0.42-0.937 0.937s0.42 0.938 0.937 0.938h7.5c0.518 0 0.937-0.42 0.937-0.938s-0.42-0.937-0.937-0.937h-2.813v-3.75h7.5v15z"></path>
</svg>
