<!-- Generated by IcoMoon.io -->
<svg version="1.1" xmlns="http://www.w3.org/2000/svg" width="33" height="32" viewBox="0 0 33 32">
<title>services-ico-3</title>
<path d="M30.616 19.046c0.64-0.865 0.757-2.072 0.176-3.080l-3.748-6.554c-0.648-1.123-2.016-1.635-3.235-1.309 0.26-1.167-0.25-2.42-1.339-3.048l-6.495-3.75c-0.928-0.536-2.037-0.481-2.89 0.047-0.494-0.81-1.386-1.351-2.402-1.351h-7.563c-1.551 0-2.813 1.262-2.813 2.813 0 0.65 0 25.626 0 26.375 0 1.551 1.262 2.813 2.813 2.813 0.728 0 22.811 0 26.375 0 1.551 0 2.813-1.262 2.813-2.813v-7.563c0-1.153-0.697-2.145-1.692-2.579zM11.62 29.188c0 0.517-0.421 0.937-0.937 0.937h-7.563c-0.517 0-0.938-0.421-0.938-0.937 0-0.428 0-8.089 0-8.5h9.438v8.5zM11.62 18.813h-9.438v-7.563h9.438v7.563zM11.62 9.375h-9.438v-6.563c0-0.517 0.421-0.938 0.938-0.938h7.563c0.517 0 0.937 0.421 0.937 0.938v6.563zM13.495 3.723l0.261-0.452c0.259-0.448 0.833-0.602 1.281-0.343l6.495 3.75c0.448 0.259 0.602 0.833 0.343 1.282l-1.083 1.883c-0.027 0.040-0.052 0.082-0.072 0.125l-7.224 12.556v-18.802zM13.495 26.285l8.764-15.234 1.812-1.046c0.459-0.265 1.089-0.104 1.347 0.341l3.748 6.554c0.259 0.449 0.108 1.025-0.346 1.287-0.669 0.388-14.666 8.49-15.325 8.872v-0.774zM30.433 29.188c0 0.517-0.421 0.937-0.937 0.937h-16.161c0.1-0.282 0.156-0.584 0.16-0.899l14.749-8.539h1.252c0.517 0 0.937 0.421 0.937 0.937v7.563z"></path>
</svg>
