<!-- Generated by IcoMoon.io -->
<svg version="1.1" xmlns="http://www.w3.org/2000/svg" width="29" height="32" viewBox="0 0 29 32">
<title>services-ico-4</title>
<path d="M24.837 2.813c0-1.551-1.262-2.813-2.813-2.813h-18.75c-1.551 0-2.813 1.262-2.813 2.813v5.625c0 1.551 1.262 2.813 2.813 2.813h18.75c1.551 0 2.813-1.262 2.813-2.813v-0.937h0.937c0.517 0 0.938 0.421 0.938 0.937v3.75c0 0.517-0.421 0.937-0.938 0.937h-11.25c-1.551 0-2.813 1.262-2.813 2.813v2.813h-0.938c-0.518 0-0.937 0.42-0.937 0.937v3.699l-0.938 3.811c-0.61 2.438 1.233 4.803 3.75 4.803 2.519 0 4.359-2.367 3.751-4.8l-0.938-3.814v-3.699c0-0.518-0.42-0.937-0.937-0.937h-0.938v-2.813c0-0.517 0.421-0.937 0.938-0.937h11.25c1.551 0 2.813-1.262 2.813-2.813v-3.75c0-1.551-1.262-2.812-2.813-2.812h-0.937v-2.813zM13.587 20.625v1.938h-1.875v-1.938h1.875zM12.649 30.125c-1.291 0-2.246-1.212-1.93-2.477l0.79-3.211h2.28l0.791 3.214c0.314 1.256-0.635 2.473-1.931 2.473zM3.274 1.875h18.75c0.517 0 0.937 0.421 0.937 0.938v0.938h-2.813c-0.911 0-2.076 0.341-3.425 0.736-1.822 0.534-3.887 1.139-5.95 1.139-2.010 0-3.428-0.587-4.678-1.105-0.956-0.396-1.859-0.77-2.822-0.77h-0.938v-0.938c0-0.517 0.421-0.938 0.938-0.938zM22.962 8.437c0 0.517-0.421 0.938-0.937 0.938h-18.75c-0.517 0-0.938-0.421-0.938-0.938v-2.812h0.938c0.59 0 1.259 0.277 2.104 0.627 1.342 0.556 3.012 1.248 5.396 1.248 2.331 0 4.63-0.673 6.477-1.214 1.16-0.34 2.256-0.661 2.898-0.661h2.813v2.812z"></path>
</svg>
