<?xml version="1.0" encoding="utf-8"?>
<!-- Generated by IcoMoon.io -->
<svg version="1.1" xmlns="http://www.w3.org/2000/svg" xmlns:xlink="http://www.w3.org/1999/xlink" width="410" height="32" viewBox="0 0 410 32">
<svg id="services-ico-1" width="34" height="32" viewBox="0 0 34 32" x="0" y="0">
<path d="M32.625 16.975c0.538 0 0.975-0.437 0.975-0.975v-7.28c0-0.538-0.437-0.975-0.975-0.975-0.68 0-13.957 0-14.69 0v-6.305c0-0.538-0.437-0.975-0.975-0.975h-10.4c-0.538 0-0.975 0.437-0.975 0.975v6.305h-4.29c-0.538 0-0.975 0.437-0.975 0.975v7.28c0 0.538 0.437 0.975 0.975 0.975h4.29v5.33h-4.29c-0.538 0-0.975 0.437-0.975 0.975v7.28c0 0.538 0.437 0.975 0.975 0.975h31.33c0.538 0 0.975-0.437 0.975-0.975v-7.28c0-0.538-0.437-0.975-0.975-0.975h-4.29v-5.33h4.29zM31.65 15.025c-1.043 0-7.484 0-8.515 0v-5.33h8.515v5.33zM21.185 15.025c-1.021 0-7.422 0-8.45 0v-5.33h8.45v5.33zM7.535 2.415h8.45v5.33c-1.021 0-7.422 0-8.45 0v-5.33zM2.27 15.025v-5.33h8.515v5.33c-1.032 0-7.472 0-8.515 0zM7.535 16.975h8.45v5.33c-1.021 0-7.422 0-8.45 0v-5.33zM2.27 24.255h8.515v5.33h-8.515v-5.33zM12.735 24.255h8.45v5.33h-8.45v-5.33zM31.65 24.255v5.33h-8.515v-5.33h8.515zM26.385 22.305c-1.021 0-7.422 0-8.45 0v-5.33h8.45v5.33z"></path>
</svg>
<svg id="services-ico-2" width="33" height="32" viewBox="0 0 33 32" x="42" y="0">
<path d="M28.558 1.938c-1.385 0-2.597 0.755-3.247 1.875h-24.066c-0.518 0-0.938 0.42-0.938 0.938v24.375c0 0.518 0.42 0.938 0.938 0.938h27.312c2.068 0 3.75-1.682 3.75-3.75v-20.625c0-2.068-1.682-3.75-3.75-3.75zM28.558 28.188c-0.367 0-26.034 0-26.375 0v-22.5h22.625v20.625c0 0.518 0.42 0.937 0.937 0.937s0.938-0.42 0.938-0.937c0-1.034 0.841-1.875 1.875-1.875s1.875 0.841 1.875 1.875c0 1.034-0.841 1.875-1.875 1.875zM30.433 23.066c-0.552-0.32-1.192-0.503-1.875-0.503s-1.323 0.183-1.875 0.503v-17.378c0-1.034 0.841-1.875 1.875-1.875s1.875 0.841 1.875 1.875v17.378z"></path>
<path d="M21.933 7.563h-16.875c-0.518 0-0.938 0.42-0.938 0.937v16.875c0 0.518 0.42 0.937 0.938 0.937h9.375c0.249 0 0.487-0.099 0.663-0.275s0.275-0.414 0.275-0.663v-1.875c0-1.222 0.784-2.265 1.875-2.652v4.527c0 0.518 0.42 0.937 0.938 0.937h3.75c0.518 0 0.938-0.42 0.938-0.937v-16.875c0-0.518-0.42-0.937-0.938-0.937zM20.995 24.437h-1.875v-4.687c0-0.518-0.42-0.938-0.937-0.938-2.585 0-4.688 2.103-4.688 4.688v0.937h-7.5v-5.625h3.75v2.813c0 0.518 0.42 0.938 0.938 0.938s0.937-0.42 0.937-0.938v-3.75c0-0.518-0.42-0.938-0.937-0.938h-4.688v-7.5h5.625v3.75h-2.813c-0.518 0-0.937 0.42-0.937 0.937s0.42 0.938 0.937 0.938h7.5c0.518 0 0.937-0.42 0.937-0.938s-0.42-0.937-0.937-0.937h-2.813v-3.75h7.5v15z"></path>
</svg>
<svg id="services-ico-3" width="33" height="32" viewBox="0 0 33 32" x="84" y="0">
<path d="M30.616 19.046c0.64-0.865 0.757-2.072 0.176-3.080l-3.748-6.554c-0.648-1.123-2.016-1.635-3.235-1.309 0.26-1.167-0.25-2.42-1.339-3.048l-6.495-3.75c-0.928-0.536-2.037-0.481-2.89 0.047-0.494-0.81-1.386-1.351-2.402-1.351h-7.563c-1.551 0-2.813 1.262-2.813 2.813 0 0.65 0 25.626 0 26.375 0 1.551 1.262 2.813 2.813 2.813 0.728 0 22.811 0 26.375 0 1.551 0 2.813-1.262 2.813-2.813v-7.563c0-1.153-0.697-2.145-1.692-2.579zM11.62 29.188c0 0.517-0.421 0.937-0.937 0.937h-7.563c-0.517 0-0.938-0.421-0.938-0.937 0-0.428 0-8.089 0-8.5h9.438v8.5zM11.62 18.813h-9.438v-7.563h9.438v7.563zM11.62 9.375h-9.438v-6.563c0-0.517 0.421-0.938 0.938-0.938h7.563c0.517 0 0.937 0.421 0.937 0.938v6.563zM13.495 3.723l0.261-0.452c0.259-0.448 0.833-0.602 1.281-0.343l6.495 3.75c0.448 0.259 0.602 0.833 0.343 1.282l-1.083 1.883c-0.027 0.040-0.052 0.082-0.072 0.125l-7.224 12.556v-18.802zM13.495 26.285l8.764-15.234 1.812-1.046c0.459-0.265 1.089-0.104 1.347 0.341l3.748 6.554c0.259 0.449 0.108 1.025-0.346 1.287-0.669 0.388-14.666 8.49-15.325 8.872v-0.774zM30.433 29.188c0 0.517-0.421 0.937-0.937 0.937h-16.161c0.1-0.282 0.156-0.584 0.16-0.899l14.749-8.539h1.252c0.517 0 0.937 0.421 0.937 0.937v7.563z"></path>
</svg>
<svg id="services-ico-4" width="29" height="32" viewBox="0 0 29 32" x="126" y="0">
<path d="M24.837 2.813c0-1.551-1.262-2.813-2.813-2.813h-18.75c-1.551 0-2.813 1.262-2.813 2.813v5.625c0 1.551 1.262 2.813 2.813 2.813h18.75c1.551 0 2.813-1.262 2.813-2.813v-0.937h0.937c0.517 0 0.938 0.421 0.938 0.937v3.75c0 0.517-0.421 0.937-0.938 0.937h-11.25c-1.551 0-2.813 1.262-2.813 2.813v2.813h-0.938c-0.518 0-0.937 0.42-0.937 0.937v3.699l-0.938 3.811c-0.61 2.438 1.233 4.803 3.75 4.803 2.519 0 4.359-2.367 3.751-4.8l-0.938-3.814v-3.699c0-0.518-0.42-0.937-0.937-0.937h-0.938v-2.813c0-0.517 0.421-0.937 0.938-0.937h11.25c1.551 0 2.813-1.262 2.813-2.813v-3.75c0-1.551-1.262-2.812-2.813-2.812h-0.937v-2.813zM13.587 20.625v1.938h-1.875v-1.938h1.875zM12.649 30.125c-1.291 0-2.246-1.212-1.93-2.477l0.79-3.211h2.28l0.791 3.214c0.314 1.256-0.635 2.473-1.931 2.473zM3.274 1.875h18.75c0.517 0 0.937 0.421 0.937 0.938v0.938h-2.813c-0.911 0-2.076 0.341-3.425 0.736-1.822 0.534-3.887 1.139-5.95 1.139-2.010 0-3.428-0.587-4.678-1.105-0.956-0.396-1.859-0.77-2.822-0.77h-0.938v-0.938c0-0.517 0.421-0.938 0.938-0.938zM22.962 8.437c0 0.517-0.421 0.938-0.937 0.938h-18.75c-0.517 0-0.938-0.421-0.938-0.938v-2.812h0.938c0.59 0 1.259 0.277 2.104 0.627 1.342 0.556 3.012 1.248 5.396 1.248 2.331 0 4.63-0.673 6.477-1.214 1.16-0.34 2.256-0.661 2.898-0.661h2.813v2.812z"></path>
</svg>
</svg>
